<svg version="1.1" id="Layer_1" xmlns="http://www.w3.org/2000/svg" xmlns:xlink="http://www.w3.org/1999/xlink" x="0px" y="0px"
	 width="100%" viewBox="0 0 906 636" enable-background="new 0 0 906 636" xml:space="preserve">
<path fill="#000000" opacity="1.000000" stroke="none" 
	d="
M657.000000,637.000000 
	C438.000000,637.000000 219.500000,637.000000 1.000000,637.000000 
	C1.000000,425.000000 1.000000,213.000000 1.000000,1.000000 
	C303.000000,1.000000 605.000000,1.000000 907.000000,1.000000 
	C907.000000,213.000000 907.000000,425.000000 907.000000,637.000000 
	C823.833313,637.000000 740.666687,637.000000 657.000000,637.000000 
M775.813965,456.001068 
	C776.156982,455.002167 776.500000,454.003265 777.003906,452.580566 
	C777.003906,452.580566 777.045227,452.129120 777.803223,452.002655 
	C779.571716,448.689484 781.340210,445.376312 783.026428,442.028320 
	C783.026428,442.028320 783.061279,442.110657 783.568176,441.939911 
	C783.659790,441.633636 783.751404,441.327362 784.044312,440.480499 
	C784.377625,440.030457 784.710938,439.580414 785.554443,438.948975 
	C785.650635,438.639832 785.746826,438.330688 786.044067,437.480774 
	C786.377441,437.030640 786.710815,436.580505 787.554504,435.948975 
	C787.650696,435.639832 787.746826,435.330688 788.003906,434.588867 
	C788.003906,434.588867 788.045227,434.129120 788.793457,434.003479 
	C789.143311,433.009979 789.493164,432.016479 790.003845,430.589569 
	C790.003845,430.589569 790.045227,430.129120 790.796265,430.003204 
	C791.145203,429.003601 791.494080,428.003967 792.050049,426.469513 
	C792.381836,426.022614 792.713623,425.575714 793.693787,424.827179 
	C793.838928,423.896881 793.984009,422.966614 794.792725,421.770874 
	C798.201172,414.428253 801.811462,407.171021 804.962097,399.719391 
	C808.215820,392.024261 811.081116,384.162109 814.010803,376.333496 
	C818.053711,365.530121 822.282959,354.783600 825.886169,343.833008 
	C828.403992,336.181000 830.058289,328.240814 832.002014,320.405426 
	C833.427429,314.659180 834.840637,308.902802 835.995056,303.098389 
	C837.179993,297.140961 838.043762,291.119690 839.870667,285.002502 
	C840.916016,281.965393 842.669434,278.969635 842.849731,275.881989 
	C843.163147,270.513885 843.940247,265.490906 845.504272,260.247131 
	C846.765076,256.020111 848.436401,252.846375 851.317932,250.484680 
	C850.136597,249.231689 848.006836,247.784683 848.229187,247.041824 
	C848.711304,245.431381 850.396484,244.181107 851.787720,242.551559 
	C851.414612,242.046555 850.193115,241.154221 850.166992,240.228226 
	C850.044556,235.879852 848.175659,235.074768 844.440979,236.760406 
	C843.749268,237.072617 842.654663,236.419434 841.734375,236.310715 
	C837.850281,235.851822 833.959839,235.057404 830.075378,235.077789 
	C823.325256,235.113174 816.550415,236.211258 809.834961,235.877121 
	C796.269287,235.202133 783.140503,237.868317 769.896790,239.926956 
	C762.032349,241.149445 753.976685,241.402344 746.243408,243.142120 
	C736.773560,245.272583 727.405884,248.102371 718.278442,251.413696 
	C713.186584,253.260956 708.949890,253.532928 707.485779,249.888412 
	C706.622559,247.739792 706.554138,245.271881 706.021240,242.022827 
	C705.963257,235.677399 705.905212,229.331985 705.995850,222.171921 
	C705.680176,220.403763 705.364441,218.635590 705.015564,216.027084 
	C704.959473,214.347763 704.903320,212.668442 704.937134,210.448151 
	C704.635925,210.264557 704.334717,210.080963 704.001892,208.989685 
	C703.332214,200.024933 703.220703,190.971497 701.814636,182.123764 
	C700.707886,175.159042 696.847351,168.537735 696.309509,161.601105 
	C695.665466,153.295914 693.076782,145.673553 690.864624,137.899704 
	C689.966003,134.741791 690.855591,130.147903 686.011841,128.987961 
	C686.011841,128.987961 686.086731,128.953796 685.994446,128.475250 
	C685.994446,128.475250 685.838135,128.013657 685.988525,127.231789 
	C679.861084,121.670395 672.849670,123.667564 666.619019,126.077759 
	C657.877808,129.459106 649.505615,133.897903 641.232300,138.360367 
	C629.520935,144.677246 617.950195,151.270218 606.497742,158.046677 
	C598.201965,162.955383 589.810974,167.846649 582.155457,173.658615 
	C572.084717,181.304276 562.666138,189.812912 553.029846,198.024139 
	C550.464478,200.210129 548.128418,202.665161 545.746277,204.940109 
	C543.794556,199.844681 542.172546,195.180603 540.227905,190.655151 
	C538.323730,186.223709 536.100769,181.928665 534.000000,177.582336 
	C530.883301,171.133987 528.161316,164.451538 524.539124,158.299881 
	C517.194214,145.825989 509.588989,133.489731 501.643005,121.390999 
	C496.443695,113.474403 490.685516,105.892067 484.761505,98.493217 
	C478.550171,90.735527 471.863617,83.356812 465.342865,75.848839 
	C460.906097,70.740326 454.093567,69.437790 449.267151,72.990128 
	C447.735657,74.247208 445.953888,75.298691 444.720306,76.800476 
	C441.213867,81.069336 437.971283,85.553520 434.552307,89.895874 
	C426.758087,99.795143 418.853607,109.608429 411.134338,119.565506 
	C408.138763,123.429436 405.549255,127.606232 402.727081,131.606842 
	C397.169678,139.484726 390.872528,146.942810 386.182220,155.304230 
	C380.424530,165.568436 375.875824,176.524292 371.029785,187.282623 
	C365.992676,198.465225 366.110229,198.518173 355.014313,194.985428 
	C355.014313,194.985428 355.092529,194.943970 355.002686,194.245285 
	C354.353180,193.799942 353.703644,193.354599 353.011261,192.986755 
	C353.011261,192.986755 353.088409,192.943253 352.835541,192.304504 
	C348.904175,189.499313 344.972778,186.694122 340.925171,183.417603 
	C340.738892,183.113251 340.467316,182.960083 339.851440,182.318283 
	C334.545990,178.361832 329.456970,174.065063 323.887878,170.523087 
	C313.754852,164.078400 303.336761,158.081924 292.820892,151.317291 
	C292.226257,151.178085 291.631653,151.038879 290.779236,150.247986 
	C288.532532,149.130157 286.285858,148.012329 283.822937,146.313095 
	C283.228302,146.173737 282.633636,146.034393 281.781860,145.245346 
	C280.534210,144.795212 279.286530,144.345078 277.824707,143.312241 
	C277.229706,143.172501 276.634735,143.032776 275.832428,142.310745 
	C275.240112,142.176315 274.647766,142.041901 274.011597,141.985535 
	C274.011597,141.985535 274.089905,141.942139 273.830627,141.294235 
	C272.232971,140.495590 270.635284,139.696930 268.774200,138.273865 
	C267.550659,137.836472 266.327087,137.399094 264.810547,136.306091 
	C262.885773,135.504623 260.960968,134.703171 258.748718,133.251312 
	C254.220505,131.045120 249.848190,128.391296 245.124542,126.746246 
	C239.247070,124.699348 233.110123,122.659248 226.162598,126.001312 
	C225.858521,126.091301 225.420227,126.082069 225.269775,126.285622 
	C219.731873,133.777679 216.809845,142.353348 214.997314,151.369476 
	C214.173691,155.466476 213.658829,159.634918 212.649231,163.682510 
	C211.663544,167.634201 209.871017,171.402130 209.074860,175.379288 
	C208.035767,180.569946 207.575012,185.880890 206.960709,191.151184 
	C205.604172,202.789261 204.268234,214.430054 203.002441,226.078278 
	C202.369766,231.900208 201.983429,237.749023 201.343552,243.570053 
	C200.962372,247.037796 199.410522,249.643127 195.343826,248.958832 
	C184.861725,247.195007 174.433334,245.089508 163.924576,243.513260 
	C154.656616,242.123108 145.309082,241.263550 135.354645,240.016754 
	C134.917587,239.974915 134.480545,239.933075 133.627274,239.147583 
	C130.689590,238.896057 127.746361,238.696289 124.815346,238.382507 
	C118.205917,237.674942 111.602524,236.910995 104.342941,235.877792 
	C95.883163,235.747345 87.419922,235.438263 78.965874,235.602707 
	C76.634850,235.648026 74.189461,236.836838 72.044312,237.970001 
	C67.405365,240.420532 69.279175,244.910049 68.461884,249.063919 
	C69.303291,256.449982 70.032059,263.851074 71.015190,271.218231 
	C72.192490,280.040405 73.363800,288.874817 74.978111,297.622650 
	C75.832710,302.253632 77.893913,306.651398 78.924599,311.263000 
	C80.496231,318.294952 81.342499,325.495697 83.057564,332.487183 
	C84.945610,340.183838 87.261261,347.794312 89.785698,355.309631 
	C91.499519,360.411713 94.819527,365.112915 95.784760,370.298004 
	C97.605301,380.077728 101.953026,388.609955 106.592697,397.135010 
	C108.110214,399.923370 109.673668,402.701050 110.961121,405.596954 
	C112.943230,410.055359 114.429848,414.752258 116.641792,419.084961 
	C118.668785,423.055420 121.763756,426.489014 123.718071,430.486725 
	C131.125809,445.639984 140.834625,459.153961 151.439590,472.220337 
	C159.938202,482.691437 167.784485,493.630920 178.000641,502.619049 
	C186.709595,510.281097 194.661514,518.849365 203.694687,526.084961 
	C213.898239,534.257935 224.779938,541.622742 235.661819,548.897583 
	C243.614532,554.214172 251.862656,559.160522 260.316315,563.634705 
	C267.762512,567.575745 275.586578,570.854004 283.403809,574.031128 
	C296.116943,579.198059 308.878662,584.270630 321.781921,588.934570 
	C328.830353,591.482239 336.206787,593.126587 343.444336,595.145813 
	C350.526276,597.121826 357.551819,599.369812 364.726410,600.925049 
	C372.575745,602.626587 380.527252,604.043640 388.507568,604.905823 
	C397.959991,605.927063 407.490784,606.223328 417.834900,606.987061 
	C426.481415,607.661926 435.117798,608.650635 443.777100,608.931152 
	C454.262878,609.270813 464.772888,609.198364 475.262604,608.925598 
	C479.867584,608.805908 484.448242,607.749634 489.691315,607.000916 
	C490.126495,606.943604 490.561707,606.886353 491.911469,606.986267 
	C498.578522,606.656982 505.250122,606.397705 511.910156,605.961060 
	C514.287476,605.805237 516.636597,605.219788 519.709717,604.982422 
	C520.806702,604.601868 521.903687,604.221375 523.707947,603.998596 
	C524.501953,603.685120 525.295959,603.371643 526.006348,603.023438 
	C526.006348,603.023438 526.059143,603.097046 526.955688,603.005127 
	C542.109436,602.698608 556.591370,598.879578 570.965210,594.537048 
	C580.588989,591.629639 590.260742,588.851013 599.768372,585.597717 
	C608.204041,582.711304 616.618469,579.635925 624.725586,575.947876 
	C635.619812,570.991943 646.329651,565.591675 656.891174,559.955933 
	C664.936951,555.662598 672.813171,550.985962 680.428833,545.969604 
	C688.923340,540.374329 697.150879,534.352661 705.286560,528.239563 
	C713.659851,521.947937 721.782288,515.322449 730.552979,508.929535 
	C730.746582,508.633392 730.940247,508.337280 731.600525,507.934814 
	C731.902466,507.751099 732.050720,507.482544 732.745667,507.006683 
	C733.540222,506.019501 734.334778,505.032288 735.715027,503.844330 
	C736.481384,503.177246 737.247742,502.510132 738.546265,501.932648 
	C738.645203,501.628143 738.744141,501.323669 739.070007,500.441864 
	C739.728455,499.670959 740.386841,498.900055 741.742004,498.006805 
	C742.864136,496.692413 743.986206,495.378021 745.024536,494.021912 
	C745.024536,494.021912 745.065979,494.105774 745.691101,493.848114 
	C746.837158,492.247101 747.983215,490.646088 749.597351,488.936920 
	C749.900940,488.753235 750.050232,488.483948 750.765625,488.006042 
	C751.886902,486.352386 753.008118,484.698730 754.673950,482.879364 
	C755.131042,482.295929 755.588135,481.712524 756.765625,481.006042 
	C757.886841,479.352386 759.008057,477.698730 760.596924,475.937225 
	C760.900574,475.753906 761.049622,475.484955 761.554504,474.948975 
	C761.650696,474.639832 761.746826,474.330688 762.003906,473.588684 
	C762.003906,473.588684 762.045532,473.128784 762.667725,472.867310 
	C763.059509,471.912994 763.451294,470.958679 764.090210,469.411835 
	C765.074890,468.318024 766.059570,467.224182 767.554565,465.948975 
	C767.650696,465.639832 767.746887,465.330688 768.076904,464.432281 
	C768.719543,463.902527 769.362244,463.372772 770.675110,462.838562 
	C771.486206,461.580200 772.297302,460.321838 773.025208,459.024872 
	C773.025208,459.024872 773.063965,459.107971 773.804260,459.002014 
	C774.239136,458.022339 774.674072,457.042633 775.025879,456.024963 
	C775.025879,456.024963 775.063965,456.107971 775.813965,456.001068 
z"/>
<path fill="#F9FDFC" opacity="1.000000" stroke="none" 
	d="
M706.128296,242.947540 
	C706.554138,245.271881 706.622559,247.739792 707.485779,249.888412 
	C708.949890,253.532928 713.186584,253.260956 718.278442,251.413696 
	C727.405884,248.102371 736.773560,245.272583 746.243408,243.142120 
	C753.976685,241.402344 762.032349,241.149445 769.896790,239.926956 
	C783.140503,237.868317 796.269287,235.202133 809.834961,235.877121 
	C816.550415,236.211258 823.325256,235.113174 830.075378,235.077789 
	C833.959839,235.057404 837.850281,235.851822 841.734375,236.310715 
	C842.654663,236.419434 843.749268,237.072617 844.440979,236.760406 
	C848.175659,235.074768 850.044556,235.879852 850.166992,240.228226 
	C850.193115,241.154221 851.414612,242.046555 851.787720,242.551559 
	C850.396484,244.181107 848.711304,245.431381 848.229187,247.041824 
	C848.006836,247.784683 850.136597,249.231689 851.317932,250.484680 
	C848.436401,252.846375 846.765076,256.020111 845.504272,260.247131 
	C843.940247,265.490906 843.163147,270.513885 842.849731,275.881989 
	C842.669434,278.969635 840.916016,281.965393 839.447144,284.642395 
	C840.209778,277.112762 841.127686,269.885437 842.657043,262.789917 
	C844.208069,255.593765 844.597534,248.439209 843.295227,241.239578 
	C843.100159,240.161392 841.487915,239.339584 840.531250,238.399170 
	C840.280151,239.537643 839.849976,240.670883 839.816406,241.815735 
	C839.753296,243.970886 840.259705,246.185486 839.935120,248.283401 
	C837.513550,263.931061 835.304382,279.625244 832.306335,295.165466 
	C830.091858,306.643616 826.926758,317.948242 823.930298,329.262665 
	C821.320862,339.115570 818.984497,349.111328 815.401367,358.619598 
	C809.726196,373.679199 803.828308,388.739410 796.701782,403.144958 
	C788.793762,419.130280 780.117126,434.843567 770.445801,449.816620 
	C761.483643,463.691620 751.579590,477.158325 740.594055,489.469727 
	C729.679565,501.701447 717.264526,512.688477 704.853760,523.468628 
	C686.240173,539.636658 665.029846,552.169312 643.517517,563.960754 
	C632.779480,569.846619 620.899841,573.656372 609.516907,578.357422 
	C594.125244,584.714050 578.534180,590.343079 562.019836,593.241028 
	C551.467041,595.092834 541.037720,597.677917 530.604614,600.151794 
	C528.949707,600.544128 527.567444,602.086426 526.059143,603.097046 
	C526.059143,603.097046 526.006348,603.023438 525.661804,603.018799 
	C524.544861,603.009399 523.772400,603.004700 522.766602,602.729614 
	C521.355469,602.307007 520.177734,602.154724 518.562866,602.001587 
	C510.493591,602.702148 502.846558,603.281189 495.242157,604.209351 
	C493.742828,604.392395 492.407715,605.921021 490.996887,606.829102 
	C490.561707,606.886353 490.126495,606.943604 489.275970,606.662842 
	C486.385834,605.917908 483.911957,605.188904 481.436005,605.181824 
	C477.980927,605.171936 474.526581,605.923401 471.067932,605.958801 
	C460.163544,606.070435 449.255402,606.123901 438.352386,605.958313 
	C430.565216,605.840027 422.783905,605.333313 414.617676,604.832886 
	C409.449280,604.372986 404.608673,604.435303 399.889069,603.710083 
	C391.277466,602.386902 382.722321,600.674133 374.171661,598.981934 
	C364.016937,596.972290 353.780884,595.234009 343.784790,592.600952 
	C333.689362,589.941711 323.751953,586.589661 313.915283,583.066589 
	C303.556976,579.356812 293.188110,575.543884 283.210846,570.937744 
	C271.980255,565.752930 261.018372,559.921082 250.245819,553.829163 
	C241.189865,548.708008 232.240601,543.265442 223.849136,537.136719 
	C214.098816,530.015503 204.577103,522.454834 195.740662,514.240967 
	C184.809921,504.080444 174.047379,493.594971 164.397034,482.242645 
	C155.217072,471.443665 147.003204,459.703430 139.387512,447.726562 
	C130.888580,434.360687 122.859505,420.596954 115.886559,406.387726 
	C108.915047,392.181396 103.344742,377.272980 97.472664,362.547760 
	C94.616364,355.385010 92.182243,348.020386 90.079201,340.599182 
	C87.390144,331.110046 85.101982,321.500763 82.875458,311.888977 
	C80.752586,302.724670 78.672935,293.535858 77.048073,284.274689 
	C75.367401,274.695404 74.438759,264.984314 72.767731,255.403000 
	C72.354355,253.032776 70.340645,250.941650 69.062576,248.722229 
	C69.279175,244.910049 67.405365,240.420532 72.044312,237.970001 
	C74.189461,236.836838 76.634850,235.648026 78.965874,235.602707 
	C87.419922,235.438263 95.883163,235.747345 104.756256,236.382034 
	C106.616249,237.564804 108.007278,238.640091 109.519402,238.852264 
	C115.643723,239.711517 121.794533,240.446838 127.959320,240.915451 
	C129.949921,241.066772 132.013367,240.259811 134.043488,239.891220 
	C134.480545,239.933075 134.917587,239.974915 135.767090,240.452454 
	C136.697235,241.245392 137.174164,241.821716 137.738754,241.926697 
	C145.208694,243.315857 152.735229,244.432495 160.159866,246.026123 
	C171.539886,248.468765 182.844772,251.259720 194.196548,253.836670 
	C198.201294,254.745773 202.250107,255.460663 205.898987,256.188477 
	C207.667236,238.430527 209.155777,221.677505 211.064362,204.972458 
	C212.261703,194.492722 213.806564,184.032761 215.720169,173.660736 
	C217.415588,164.471191 219.677216,155.374847 221.990479,146.314377 
	C223.600311,140.009125 225.743118,133.840790 227.564163,127.586922 
	C227.692566,127.146034 227.129044,126.503677 226.887268,125.955002 
	C233.110123,122.659248 239.247070,124.699348 245.124542,126.746246 
	C249.848190,128.391296 254.220505,131.045120 258.937866,133.944092 
	C261.119202,135.411835 263.111389,136.186768 265.103546,136.961700 
	C266.327087,137.399094 267.550659,137.836472 268.937256,138.962799 
	C270.763519,140.415222 272.426727,141.178680 274.089905,141.942139 
	C274.089905,141.942139 274.011597,141.985535 274.049957,142.249710 
	C274.738800,142.640274 275.389252,142.766663 276.039734,142.893036 
	C276.634735,143.032776 277.229706,143.172501 277.962708,143.939011 
	C279.413483,145.008881 280.726227,145.451965 282.039001,145.895050 
	C282.633636,146.034393 283.228302,146.173737 283.954407,146.964020 
	C285.423340,150.782852 287.655212,152.057999 291.037018,150.899658 
	C291.631653,151.038879 292.226257,151.178085 292.953766,151.965546 
	C293.523651,153.286636 293.806091,154.195770 294.420410,154.597595 
	C308.391815,163.736450 322.386566,172.840057 336.427185,181.872086 
	C337.460327,182.536652 338.873840,182.609940 340.110504,182.958115 
	C340.467316,182.960083 340.738892,183.113251 341.005432,184.006485 
	C344.607574,188.066742 347.315552,192.708328 353.088409,192.943253 
	C353.088409,192.943253 353.011261,192.986755 353.060974,193.282318 
	C353.771301,194.033234 354.431915,194.488602 355.092529,194.943970 
	C355.092529,194.943970 355.014313,194.985428 355.055115,195.298203 
	C357.778259,197.978287 360.458466,200.347992 363.143524,202.712128 
	C365.367249,204.670059 366.972351,204.085693 368.216003,201.552353 
	C371.054688,195.769928 373.964539,190.022430 376.805847,184.241272 
	C380.125549,177.486801 383.182434,170.592056 386.763947,163.980591 
	C390.043671,157.926224 393.837555,152.147842 397.465515,146.285385 
	C400.933746,140.681061 404.302124,135.002304 408.041046,129.581558 
	C411.973236,123.880547 416.282532,118.438995 420.445709,112.898064 
	C426.384064,104.994431 432.388336,97.139763 438.270569,89.194649 
	C442.263397,83.801437 446.095062,78.288910 449.998810,72.829742 
	C454.093567,69.437790 460.906097,70.740326 465.342865,75.848839 
	C471.863617,83.356812 478.550171,90.735527 484.761505,98.493217 
	C490.685516,105.892067 496.443695,113.474403 501.643005,121.390999 
	C509.588989,133.489731 517.194214,145.825989 524.539124,158.299881 
	C528.161316,164.451538 530.883301,171.133987 534.000000,177.582336 
	C536.100769,181.928665 538.323730,186.223709 540.227905,190.655151 
	C542.172546,195.180603 543.794556,199.844681 545.746277,204.940109 
	C548.128418,202.665161 550.464478,200.210129 553.029846,198.024139 
	C562.666138,189.812912 572.084717,181.304276 582.155457,173.658615 
	C589.810974,167.846649 598.201965,162.955383 606.497742,158.046677 
	C617.950195,151.270218 629.520935,144.677246 641.232300,138.360367 
	C649.505615,133.897903 657.877808,129.459106 666.619019,126.077759 
	C672.849670,123.667564 679.861084,121.670395 685.774597,127.739594 
	C685.736023,128.482864 685.911377,128.718338 686.086731,128.953796 
	C686.086731,128.953796 686.011841,128.987961 686.016357,129.383347 
	C686.774536,134.303848 687.290833,138.884171 688.328003,143.343338 
	C691.075623,155.156250 694.410034,166.843491 696.817078,178.721359 
	C698.736267,188.191513 699.980408,197.835815 700.893738,207.462646 
	C701.955078,218.649490 702.270386,229.905777 703.078247,241.119766 
	C703.174316,242.453720 704.330383,243.711288 704.997559,245.298874 
	C705.095764,246.094513 705.191589,246.595566 705.442383,247.907288 
	C705.725586,246.726425 705.933411,246.372864 705.836853,246.152954 
	C705.650208,245.727905 705.291992,245.378220 705.032959,244.685959 
	C705.416809,243.898926 705.772583,243.423233 706.128296,242.947540 
M133.421371,397.969727 
	C136.428452,403.706146 139.386230,409.468994 142.451080,415.174377 
	C156.069260,440.525452 172.918564,463.550140 192.871933,484.253143 
	C210.263000,502.297607 229.705307,517.827332 251.000046,531.106506 
	C275.515137,546.393799 301.371063,558.888611 329.006226,567.131226 
	C347.266449,572.577759 365.941681,577.033752 384.721588,580.222473 
	C402.854553,583.301331 421.361053,584.175476 439.700836,586.044128 
	C443.686127,586.450195 445.158295,584.926331 444.471802,580.846802 
	C441.636658,563.999023 439.241119,547.072571 436.138428,530.275818 
	C431.805023,506.816681 424.406799,484.178467 414.364441,462.628326 
	C406.038727,444.762054 396.765015,427.225952 386.516479,410.392761 
	C369.962036,383.202057 348.524139,360.033844 323.878632,339.885132 
	C298.236115,318.921326 270.032379,302.283020 239.432404,289.573303 
	C215.855148,279.780548 191.552826,272.164185 166.601074,267.301605 
	C143.799652,262.858093 120.581581,260.556610 97.552742,257.271851 
	C94.061371,256.773834 92.331924,257.921814 93.068077,261.610687 
	C96.805061,280.336853 99.927788,299.215118 104.476112,317.742950 
	C111.218727,345.209381 120.864075,371.742218 133.421371,397.969727 
M683.433716,284.872650 
	C681.387634,285.572601 679.296448,286.163666 677.302185,286.988831 
	C649.739929,298.393311 623.660645,312.387207 599.813843,330.477173 
	C571.218384,352.169403 546.644043,377.709412 526.475769,407.312775 
	C509.862579,431.697876 496.712646,458.018005 487.336548,486.007507 
	C482.181793,501.395477 477.847626,517.132629 474.340424,532.977295 
	C470.829559,548.838562 468.764618,565.022522 466.169678,581.081848 
	C465.594238,584.643066 467.285614,586.348572 471.030792,586.057068 
	C475.999084,585.670288 481.015717,585.748535 485.952881,585.145874 
	C505.067291,582.812439 524.485352,581.722168 543.173096,577.461487 
	C565.104126,572.461426 586.880188,565.900391 607.851135,557.767212 
	C643.243286,544.040894 675.290649,524.265381 703.484131,498.594849 
	C725.387695,478.651337 743.817505,455.817474 759.530518,430.762238 
	C774.946228,406.181091 787.255127,380.041534 796.123230,352.485260 
	C802.518921,332.611786 807.396912,312.234161 812.501831,291.968048 
	C814.850342,282.644653 816.264587,273.072693 817.789734,263.563293 
	C818.234863,260.788300 819.550415,256.583588 813.895569,257.211792 
	C805.636780,258.129272 797.355530,258.905487 789.135864,260.099792 
	C773.691284,262.343872 758.040405,263.836029 742.921326,267.487488 
	C723.115051,272.271027 703.740723,278.843262 683.433716,284.872650 
M599.887329,304.429413 
	C617.117920,294.861267 634.179810,284.969940 651.646851,275.854889 
	C661.029114,270.958832 671.151306,267.493835 680.822388,263.123688 
	C682.244385,262.481110 683.994568,260.356079 683.937134,258.986359 
	C683.289551,243.538208 683.199402,227.989136 681.212280,212.694199 
	C678.690735,193.286423 674.557739,174.088089 671.122009,154.799011 
	C670.180969,149.515259 669.626892,149.201263 664.707642,151.532135 
	C636.416870,164.936844 609.816711,181.168503 584.581116,199.654129 
	C559.663574,217.906769 536.880493,238.542084 517.346252,262.477692 
	C507.917542,274.030792 499.175201,286.263153 491.249634,298.895386 
	C479.776794,317.181427 469.799286,336.323853 463.660065,357.216278 
	C460.158722,369.131622 455.970276,380.870605 453.014648,392.915588 
	C446.277100,420.373077 443.898315,448.350433 444.853668,476.583221 
	C445.008606,481.162781 446.129364,485.751221 447.180939,490.247314 
	C448.236572,494.760742 449.686981,499.188507 451.107391,503.607880 
	C452.341797,507.448669 453.775940,511.225250 455.121826,515.030212 
	C457.401825,511.419373 458.595917,508.336426 459.419434,505.157501 
	C466.615936,477.376831 477.405914,450.980011 491.002045,425.803619 
	C507.997986,394.331726 528.373901,365.138153 554.856262,340.881134 
	C568.892761,328.024231 584.444031,316.821045 599.887329,304.429413 
M258.897980,157.497314 
	C253.416550,154.904434 247.935104,152.311554 241.915527,149.464127 
	C240.808060,152.571045 239.739929,154.822662 239.210663,157.194534 
	C237.729660,163.831512 236.317841,170.491470 235.152451,177.189987 
	C230.645340,203.095825 227.324905,229.115158 226.675171,255.466934 
	C226.536530,261.089569 228.990463,262.943970 233.301880,264.811523 
	C248.519073,271.403015 263.895752,277.708588 278.717682,285.112061 
	C304.274567,297.877533 327.501465,314.250000 348.684326,333.413940 
	C377.078369,359.101746 399.947906,389.153717 418.327393,422.680634 
	C420.167572,426.037415 421.954773,429.423218 424.469513,434.103943 
	C426.145599,424.032562 427.810394,415.603668 428.908752,407.101562 
	C431.197418,389.385284 436.141693,372.356720 441.698700,355.469116 
	C443.542023,349.867432 443.743713,344.445343 440.999268,339.000916 
	C437.269684,331.602325 434.002960,323.962738 430.100647,316.660095 
	C411.431213,281.722748 387.118988,251.278168 357.707489,224.696060 
	C328.021332,197.865692 294.725647,176.531189 258.897980,157.497314 
M470.221985,293.677582 
	C475.794312,285.028778 480.698364,275.847107 487.080444,267.844025 
	C499.711456,252.004776 513.191833,236.844147 526.201294,221.302704 
	C527.142029,220.178894 527.883301,217.938080 527.407166,216.735123 
	C524.660645,209.795959 521.733521,202.909149 518.475464,196.194901 
	C504.361847,167.109543 487.089386,139.965866 467.572571,114.230736 
	C463.902161,109.390854 460.017792,104.713203 455.969574,99.631126 
	C454.364227,101.138947 453.112091,102.002769 452.261475,103.161369 
	C441.848083,117.345230 430.994202,131.239395 421.241913,145.866959 
	C406.958130,167.291306 394.898407,190.000198 384.691376,213.685944 
	C382.951202,217.724060 383.536926,220.249680 386.550385,223.267593 
	C412.904053,249.660370 435.056702,279.130005 451.528473,312.722717 
	C452.629181,314.967529 454.252563,316.956085 455.934509,319.524475 
	C460.912384,310.564148 465.416931,302.455780 470.221985,293.677582 
z"/>
<path fill="#FAF9F4" opacity="1.000000" stroke="none" 
	d="
M526.507446,603.051086 
	C527.567444,602.086426 528.949707,600.544128 530.604614,600.151794 
	C541.037720,597.677917 551.467041,595.092834 562.019836,593.241028 
	C578.534180,590.343079 594.125244,584.714050 609.516907,578.357422 
	C620.899841,573.656372 632.779480,569.846619 643.517517,563.960754 
	C665.029846,552.169312 686.240173,539.636658 704.853760,523.468628 
	C717.264526,512.688477 729.679565,501.701447 740.594055,489.469727 
	C751.579590,477.158325 761.483643,463.691620 770.445801,449.816620 
	C780.117126,434.843567 788.793762,419.130280 796.701782,403.144958 
	C803.828308,388.739410 809.726196,373.679199 815.401367,358.619598 
	C818.984497,349.111328 821.320862,339.115570 823.930298,329.262665 
	C826.926758,317.948242 830.091858,306.643616 832.306335,295.165466 
	C835.304382,279.625244 837.513550,263.931061 839.935120,248.283401 
	C840.259705,246.185486 839.753296,243.970886 839.816406,241.815735 
	C839.849976,240.670883 840.280151,239.537643 840.531250,238.399170 
	C841.487915,239.339584 843.100159,240.161392 843.295227,241.239578 
	C844.597534,248.439209 844.208069,255.593765 842.657043,262.789917 
	C841.127686,269.885437 840.209778,277.112762 839.035889,284.704285 
	C838.043762,291.119690 837.179993,297.140961 835.995056,303.098389 
	C834.840637,308.902802 833.427429,314.659180 832.002014,320.405426 
	C830.058289,328.240814 828.403992,336.181000 825.886169,343.833008 
	C822.282959,354.783600 818.053711,365.530121 814.010803,376.333496 
	C811.081116,384.162109 808.215820,392.024261 804.962097,399.719391 
	C801.811462,407.171021 798.201172,414.428253 794.170349,422.098328 
	C793.380493,423.326813 793.213013,424.227844 793.045471,425.128845 
	C792.713623,425.575714 792.381836,426.022614 791.608154,426.806274 
	C790.792542,428.138367 790.418884,429.133759 790.045227,430.129120 
	C790.045227,430.129120 790.003845,430.589569 789.648438,430.969055 
	C788.877075,432.275391 788.461121,433.202271 788.045227,434.129120 
	C788.045227,434.129120 788.003906,434.588867 787.729492,434.939758 
	C787.238586,435.531616 787.101624,435.811523 787.044189,436.130341 
	C786.710815,436.580505 786.377441,437.030640 785.749573,437.885742 
	C785.238586,438.531616 785.101624,438.811523 785.044189,439.130371 
	C784.710938,439.580414 784.377625,440.030457 783.751831,440.881775 
	C783.243652,441.518951 783.110962,441.794800 783.061279,442.110657 
	C783.061279,442.110657 783.026428,442.028320 782.717468,442.073669 
	C780.620728,445.455719 778.832947,448.792419 777.045227,452.129120 
	C777.045227,452.129120 777.003906,452.580566 776.586426,452.860474 
	C775.800598,454.129578 775.432312,455.118774 775.063965,456.107971 
	C775.063965,456.107971 775.025879,456.024963 774.707520,456.078949 
	C773.947449,457.124634 773.505737,458.116302 773.063965,459.107971 
	C773.063965,459.107971 773.025208,459.024872 772.711121,459.059265 
	C771.599670,460.343475 770.802307,461.593262 770.004883,462.843018 
	C769.362244,463.372772 768.719543,463.902527 767.765991,464.861481 
	C767.238586,465.531616 767.101624,465.811523 767.044189,466.130341 
	C766.059570,467.224182 765.074890,468.318024 763.628296,469.777405 
	C762.792725,471.138275 762.419128,472.133545 762.045532,473.128784 
	C762.045532,473.128784 762.003906,473.588684 761.729492,473.939697 
	C761.238586,474.531616 761.101624,474.811523 761.044189,475.130341 
	C761.049622,475.484955 760.900574,475.753906 759.995972,476.012268 
	C758.278442,477.767914 757.161804,479.448517 756.045227,481.129120 
	C755.588135,481.712524 755.131042,482.295929 754.034546,482.983337 
	C752.278564,484.767914 751.161865,486.448517 750.045227,488.129120 
	C750.050232,488.483948 749.900940,488.753235 748.997192,489.011963 
	C747.286682,490.759918 746.176331,492.432861 745.065979,494.105774 
	C745.065979,494.105774 745.024536,494.021912 744.710510,494.056641 
	C743.279419,495.437317 742.162354,496.783234 741.045227,498.129150 
	C740.386841,498.900055 739.728455,499.670959 738.777588,500.822418 
	C738.262634,501.368042 738.105591,501.581390 738.014038,501.843018 
	C737.247742,502.510132 736.481384,503.177246 735.065186,503.964722 
	C733.625244,505.099762 732.835266,506.114441 732.045227,507.129120 
	C732.050720,507.482544 731.902466,507.751099 731.141724,508.062744 
	C730.381348,508.327362 730.158508,508.544800 730.014465,508.843018 
	C721.782288,515.322449 713.659851,521.947937 705.286560,528.239563 
	C697.150879,534.352661 688.923340,540.374329 680.428833,545.969604 
	C672.813171,550.985962 664.936951,555.662598 656.891174,559.955933 
	C646.329651,565.591675 635.619812,570.991943 624.725586,575.947876 
	C616.618469,579.635925 608.204041,582.711304 599.768372,585.597717 
	C590.260742,588.851013 580.588989,591.629639 570.965210,594.537048 
	C556.591370,598.879578 542.109436,602.698608 526.507446,603.051086 
z"/>
<path fill="#F9FAF5" opacity="1.000000" stroke="none" 
	d="
M68.762230,248.893066 
	C70.340645,250.941650 72.354355,253.032776 72.767731,255.403000 
	C74.438759,264.984314 75.367401,274.695404 77.048073,284.274689 
	C78.672935,293.535858 80.752586,302.724670 82.875458,311.888977 
	C85.101982,321.500763 87.390144,331.110046 90.079201,340.599182 
	C92.182243,348.020386 94.616364,355.385010 97.472664,362.547760 
	C103.344742,377.272980 108.915047,392.181396 115.886559,406.387726 
	C122.859505,420.596954 130.888580,434.360687 139.387512,447.726562 
	C147.003204,459.703430 155.217072,471.443665 164.397034,482.242645 
	C174.047379,493.594971 184.809921,504.080444 195.740662,514.240967 
	C204.577103,522.454834 214.098816,530.015503 223.849136,537.136719 
	C232.240601,543.265442 241.189865,548.708008 250.245819,553.829163 
	C261.018372,559.921082 271.980255,565.752930 283.210846,570.937744 
	C293.188110,575.543884 303.556976,579.356812 313.915283,583.066589 
	C323.751953,586.589661 333.689362,589.941711 343.784790,592.600952 
	C353.780884,595.234009 364.016937,596.972290 374.171661,598.981934 
	C382.722321,600.674133 391.277466,602.386902 399.889069,603.710083 
	C404.608673,604.435303 409.449280,604.372986 414.761230,605.067627 
	C415.853943,605.924194 416.420776,606.379028 416.987610,606.833862 
	C407.490784,606.223328 397.959991,605.927063 388.507568,604.905823 
	C380.527252,604.043640 372.575745,602.626587 364.726410,600.925049 
	C357.551819,599.369812 350.526276,597.121826 343.444336,595.145813 
	C336.206787,593.126587 328.830353,591.482239 321.781921,588.934570 
	C308.878662,584.270630 296.116943,579.198059 283.403809,574.031128 
	C275.586578,570.854004 267.762512,567.575745 260.316315,563.634705 
	C251.862656,559.160522 243.614532,554.214172 235.661819,548.897583 
	C224.779938,541.622742 213.898239,534.257935 203.694687,526.084961 
	C194.661514,518.849365 186.709595,510.281097 178.000641,502.619049 
	C167.784485,493.630920 159.938202,482.691437 151.439590,472.220337 
	C140.834625,459.153961 131.125809,445.639984 123.718071,430.486725 
	C121.763756,426.489014 118.668785,423.055420 116.641792,419.084961 
	C114.429848,414.752258 112.943230,410.055359 110.961121,405.596954 
	C109.673668,402.701050 108.110214,399.923370 106.592697,397.135010 
	C101.953026,388.609955 97.605301,380.077728 95.784760,370.298004 
	C94.819527,365.112915 91.499519,360.411713 89.785698,355.309631 
	C87.261261,347.794312 84.945610,340.183838 83.057564,332.487183 
	C81.342499,325.495697 80.496231,318.294952 78.924599,311.263000 
	C77.893913,306.651398 75.832710,302.253632 74.978111,297.622650 
	C73.363800,288.874817 72.192490,280.040405 71.015190,271.218231 
	C70.032059,263.851074 69.303291,256.449982 68.762230,248.893066 
z"/>
<path fill="#FAF9F5" opacity="1.000000" stroke="none" 
	d="
M226.524933,125.978157 
	C227.129044,126.503677 227.692566,127.146034 227.564163,127.586922 
	C225.743118,133.840790 223.600311,140.009125 221.990479,146.314377 
	C219.677216,155.374847 217.415588,164.471191 215.720169,173.660736 
	C213.806564,184.032761 212.261703,194.492722 211.064362,204.972458 
	C209.155777,221.677505 207.667236,238.430527 205.898987,256.188477 
	C202.250107,255.460663 198.201294,254.745773 194.196548,253.836670 
	C182.844772,251.259720 171.539886,248.468765 160.159866,246.026123 
	C152.735229,244.432495 145.208694,243.315857 137.738754,241.926697 
	C137.174164,241.821716 136.697235,241.245392 136.088104,240.528931 
	C145.309082,241.263550 154.656616,242.123108 163.924576,243.513260 
	C174.433334,245.089508 184.861725,247.195007 195.343826,248.958832 
	C199.410522,249.643127 200.962372,247.037796 201.343552,243.570053 
	C201.983429,237.749023 202.369766,231.900208 203.002441,226.078278 
	C204.268234,214.430054 205.604172,202.789261 206.960709,191.151184 
	C207.575012,185.880890 208.035767,180.569946 209.074860,175.379288 
	C209.871017,171.402130 211.663544,167.634201 212.649231,163.682510 
	C213.658829,159.634918 214.173691,155.466476 214.997314,151.369476 
	C216.809845,142.353348 219.731873,133.777679 225.269775,126.285622 
	C225.420227,126.082069 225.858521,126.091301 226.524933,125.978157 
z"/>
<path fill="#F9FAF5" opacity="1.000000" stroke="none" 
	d="
M449.632996,72.909943 
	C446.095062,78.288910 442.263397,83.801437 438.270569,89.194649 
	C432.388336,97.139763 426.384064,104.994431 420.445709,112.898064 
	C416.282532,118.438995 411.973236,123.880547 408.041046,129.581558 
	C404.302124,135.002304 400.933746,140.681061 397.465515,146.285385 
	C393.837555,152.147842 390.043671,157.926224 386.763947,163.980591 
	C383.182434,170.592056 380.125549,177.486801 376.805847,184.241272 
	C373.964539,190.022430 371.054688,195.769928 368.216003,201.552353 
	C366.972351,204.085693 365.367249,204.670059 363.143524,202.712128 
	C360.458466,200.347992 357.778259,197.978287 355.075928,195.259125 
	C366.110229,198.518173 365.992676,198.465225 371.029785,187.282623 
	C375.875824,176.524292 380.424530,165.568436 386.182220,155.304230 
	C390.872528,146.942810 397.169678,139.484726 402.727081,131.606842 
	C405.549255,127.606232 408.138763,123.429436 411.134338,119.565506 
	C418.853607,109.608429 426.758087,99.795143 434.552307,89.895874 
	C437.971283,85.553520 441.213867,81.069336 444.720306,76.800476 
	C445.953888,75.298691 447.735657,74.247208 449.632996,72.909943 
z"/>
<path fill="#F9FAF6" opacity="1.000000" stroke="none" 
	d="
M704.995117,245.004272 
	C704.330383,243.711288 703.174316,242.453720 703.078247,241.119766 
	C702.270386,229.905777 701.955078,218.649490 700.893738,207.462646 
	C699.980408,197.835815 698.736267,188.191513 696.817078,178.721359 
	C694.410034,166.843491 691.075623,155.156250 688.328003,143.343338 
	C687.290833,138.884171 686.774536,134.303848 686.035828,129.347107 
	C690.855591,130.147903 689.966003,134.741791 690.864624,137.899704 
	C693.076782,145.673553 695.665466,153.295914 696.309509,161.601105 
	C696.847351,168.537735 700.707886,175.159042 701.814636,182.123764 
	C703.220703,190.971497 703.332214,200.024933 704.093262,209.665955 
	C704.331848,210.633224 704.552734,210.848862 704.847168,210.989120 
	C704.903320,212.668442 704.959473,214.347763 705.018799,216.853577 
	C705.297058,219.448898 705.572083,221.217728 705.847168,222.986557 
	C705.905212,229.331985 705.963257,235.677399 706.074829,242.485184 
	C705.772583,243.423233 705.416809,243.898926 705.030518,244.687317 
	C705.000000,245.000000 704.995117,245.004272 704.995117,245.004272 
z"/>
<path fill="#F9FAF7" opacity="1.000000" stroke="none" 
	d="
M417.411255,606.910400 
	C416.420776,606.379028 415.853943,605.924194 415.143555,605.234741 
	C422.783905,605.333313 430.565216,605.840027 438.352386,605.958313 
	C449.255402,606.123901 460.163544,606.070435 471.067932,605.958801 
	C474.526581,605.923401 477.980927,605.171936 481.436005,605.181824 
	C483.911957,605.188904 486.385834,605.917908 488.950287,606.721680 
	C484.448242,607.749634 479.867584,608.805908 475.262604,608.925598 
	C464.772888,609.198364 454.262878,609.270813 443.777100,608.931152 
	C435.117798,608.650635 426.481415,607.661926 417.411255,606.910400 
z"/>
<path fill="#F9FAF5" opacity="1.000000" stroke="none" 
	d="
M339.980957,182.638199 
	C338.873840,182.609940 337.460327,182.536652 336.427185,181.872086 
	C322.386566,172.840057 308.391815,163.736450 294.420410,154.597595 
	C293.806091,154.195770 293.523651,153.286636 293.062134,152.256104 
	C303.336761,158.081924 313.754852,164.078400 323.887878,170.523087 
	C329.456970,174.065063 334.545990,178.361832 339.980957,182.638199 
z"/>
<path fill="#F9FAF7" opacity="1.000000" stroke="none" 
	d="
M491.454163,606.907715 
	C492.407715,605.921021 493.742828,604.392395 495.242157,604.209351 
	C502.846558,603.281189 510.493591,602.702148 518.562866,602.355042 
	C518.999512,603.416382 518.999023,604.123474 518.998596,604.830505 
	C516.636597,605.219788 514.287476,605.805237 511.910156,605.961060 
	C505.250122,606.397705 498.578522,606.656982 491.454163,606.907715 
z"/>
<path fill="#FAF9F5" opacity="1.000000" stroke="none" 
	d="
M133.835388,239.519394 
	C132.013367,240.259811 129.949921,241.066772 127.959320,240.915451 
	C121.794533,240.446838 115.643723,239.711517 109.519402,238.852264 
	C108.007278,238.640091 106.616249,237.564804 105.083122,236.528137 
	C111.602524,236.910995 118.205917,237.674942 124.815346,238.382507 
	C127.746361,238.696289 130.689590,238.896057 133.835388,239.519394 
z"/>
<path fill="#F9FAF5" opacity="1.000000" stroke="none" 
	d="
M352.961975,192.623871 
	C347.315552,192.708328 344.607574,188.066742 341.063538,184.242157 
	C344.972778,186.694122 348.904175,189.499313 352.961975,192.623871 
z"/>
<path fill="#FFFFFF" opacity="1.000000" stroke="none" 
	d="
M777.424194,452.065887 
	C778.832947,448.792419 780.620728,445.455719 782.758667,442.091095 
	C781.340210,445.376312 779.571716,448.689484 777.424194,452.065887 
z"/>
<path fill="#F9FAF5" opacity="1.000000" stroke="none" 
	d="
M290.908142,150.573822 
	C287.655212,152.057999 285.423340,150.782852 284.062531,147.254700 
	C286.285858,148.012329 288.532532,149.130157 290.908142,150.573822 
z"/>
<path fill="#FFFFFF" opacity="1.000000" stroke="none" 
	d="
M750.405396,488.067566 
	C751.161865,486.448517 752.278564,484.767914 753.762268,483.066193 
	C753.008118,484.698730 751.886902,486.352386 750.405396,488.067566 
z"/>
<path fill="#FFFFFF" opacity="1.000000" stroke="none" 
	d="
M756.405396,481.067566 
	C757.161804,479.448517 758.278442,477.767914 759.762207,476.066223 
	C759.008057,477.698730 757.886841,479.352386 756.405396,481.067566 
z"/>
<path fill="#FFFFFF" opacity="1.000000" stroke="none" 
	d="
M745.378540,493.976929 
	C746.176331,492.432861 747.286682,490.759918 748.763123,489.066040 
	C747.983215,490.646088 746.837158,492.247101 745.378540,493.976929 
z"/>
<path fill="#FAF9F4" opacity="1.000000" stroke="none" 
	d="
M519.354126,604.906494 
	C518.999023,604.123474 518.999512,603.416382 519.000000,602.355896 
	C520.177734,602.154724 521.355469,602.307007 522.766602,602.939819 
	C522.999939,603.420410 523.000671,603.840820 523.000671,603.840820 
	C521.903687,604.221375 520.806702,604.601868 519.354126,604.906494 
z"/>
<path fill="#F9FAF5" opacity="1.000000" stroke="none" 
	d="
M273.960266,141.618195 
	C272.426727,141.178680 270.763519,140.415222 269.068970,139.275024 
	C270.635284,139.696930 272.232971,140.495590 273.960266,141.618195 
z"/>
<path fill="#F9FAF5" opacity="1.000000" stroke="none" 
	d="
M264.957031,136.633896 
	C263.111389,136.186768 261.119202,135.411835 259.081604,134.269287 
	C260.960968,134.703171 262.885773,135.504623 264.957031,136.633896 
z"/>
<path fill="#FFFFFF" opacity="1.000000" stroke="none" 
	d="
M741.393616,498.067963 
	C742.162354,496.783234 743.279419,495.437317 744.752380,494.077515 
	C743.986206,495.378021 742.864136,496.692413 741.393616,498.067963 
z"/>
<path fill="#F9FAF5" opacity="1.000000" stroke="none" 
	d="
M281.910431,145.570190 
	C280.726227,145.451965 279.413483,145.008881 278.069794,144.230362 
	C279.286530,144.345078 280.534210,144.795212 281.910431,145.570190 
z"/>
<path fill="#FFFFFF" opacity="1.000000" stroke="none" 
	d="
M770.340027,462.840820 
	C770.802307,461.593262 771.599670,460.343475 772.752747,459.078613 
	C772.297302,460.321838 771.486206,461.580200 770.340027,462.840820 
z"/>
<path fill="#FFFFFF" opacity="1.000000" stroke="none" 
	d="
M732.395447,507.067902 
	C732.835266,506.114441 733.625244,505.099762 734.772339,504.065063 
	C734.334778,505.032288 733.540222,506.019501 732.395447,507.067902 
z"/>
<path fill="#FFFFFF" opacity="1.000000" stroke="none" 
	d="
M773.434082,459.054993 
	C773.505737,458.116302 773.947449,457.124634 774.749023,456.097961 
	C774.674072,457.042633 774.239136,458.022339 773.434082,459.054993 
z"/>
<path fill="#F9FDFC" opacity="1.000000" stroke="none" 
	d="
M705.921509,222.579239 
	C705.572083,221.217728 705.297058,219.448898 705.035400,217.273743 
	C705.364441,218.635590 705.680176,220.403763 705.921509,222.579239 
z"/>
<path fill="#FFFFFF" opacity="1.000000" stroke="none" 
	d="
M775.438965,456.054504 
	C775.432312,455.118774 775.800598,454.129578 776.505981,453.072357 
	C776.500000,454.003265 776.156982,455.002167 775.438965,456.054504 
z"/>
<path fill="#FFFFFF" opacity="1.000000" stroke="none" 
	d="
M790.420776,430.066162 
	C790.418884,429.133759 790.792542,428.138367 791.504639,427.073669 
	C791.494080,428.003967 791.145203,429.003601 790.420776,430.066162 
z"/>
<path fill="#FFFFFF" opacity="1.000000" stroke="none" 
	d="
M762.356628,472.998047 
	C762.419128,472.133545 762.792725,471.138275 763.504639,470.073669 
	C763.451294,470.958679 763.059509,471.912994 762.356628,472.998047 
z"/>
<path fill="#FFFFFF" opacity="1.000000" stroke="none" 
	d="
M788.419312,434.066284 
	C788.461121,433.202271 788.877075,432.275391 789.567993,431.185760 
	C789.493164,432.016479 789.143311,433.009979 788.419312,434.066284 
z"/>
<path fill="#F9FAF5" opacity="1.000000" stroke="none" 
	d="
M355.047607,194.594635 
	C354.431915,194.488602 353.771301,194.033234 353.082397,193.243561 
	C353.703644,193.354599 354.353180,193.799942 355.047607,194.594635 
z"/>
<path fill="#F9FAF5" opacity="1.000000" stroke="none" 
	d="
M275.936096,142.601898 
	C275.389252,142.766663 274.738800,142.640274 274.071899,142.210678 
	C274.647766,142.041901 275.240112,142.176315 275.936096,142.601898 
z"/>
<path fill="#F9FAF7" opacity="1.000000" stroke="none" 
	d="
M523.354309,603.919678 
	C523.000671,603.840820 522.999939,603.420410 523.000000,603.210205 
	C523.772400,603.004700 524.544861,603.009399 525.703613,603.036194 
	C525.295959,603.371643 524.501953,603.685120 523.354309,603.919678 
z"/>
<path fill="#FFFFFF" opacity="1.000000" stroke="none" 
	d="
M793.369629,424.978027 
	C793.213013,424.227844 793.380493,423.326813 793.838501,422.231049 
	C793.984009,422.966614 793.838928,423.896881 793.369629,424.978027 
z"/>
<path fill="#F9FAF6" opacity="1.000000" stroke="none" 
	d="
M686.040588,128.714539 
	C685.911377,128.718338 685.736023,128.482864 685.699402,128.130524 
	C685.838135,128.013657 685.994446,128.475250 686.040588,128.714539 
z"/>
<path fill="#F9FDFC" opacity="1.000000" stroke="none" 
	d="
M704.892151,210.718628 
	C704.552734,210.848862 704.331848,210.633224 704.109070,210.119812 
	C704.334717,210.080963 704.635925,210.264557 704.892151,210.718628 
z"/>
<path fill="#FFFFFF" opacity="1.000000" stroke="none" 
	d="
M730.283691,508.886292 
	C730.158508,508.544800 730.381348,508.327362 730.908447,508.115906 
	C730.940247,508.337280 730.746582,508.633392 730.283691,508.886292 
z"/>
<path fill="#FFFFFF" opacity="1.000000" stroke="none" 
	d="
M738.280151,501.887817 
	C738.105591,501.581390 738.262634,501.368042 738.664124,501.111084 
	C738.744141,501.323669 738.645203,501.628143 738.280151,501.887817 
z"/>
<path fill="#FFFFFF" opacity="1.000000" stroke="none" 
	d="
M787.299316,436.039673 
	C787.101624,435.811523 787.238586,435.531616 787.649048,435.156128 
	C787.746826,435.330688 787.650696,435.639832 787.299316,436.039673 
z"/>
<path fill="#FFFFFF" opacity="1.000000" stroke="none" 
	d="
M761.299316,475.039673 
	C761.101624,474.811523 761.238586,474.531616 761.649048,474.156128 
	C761.746826,474.330688 761.650696,474.639832 761.299316,475.039673 
z"/>
<path fill="#FFFFFF" opacity="1.000000" stroke="none" 
	d="
M767.299377,466.039673 
	C767.101624,465.811523 767.238586,465.531616 767.649048,465.156128 
	C767.746887,465.330688 767.650696,465.639832 767.299377,466.039673 
z"/>
<path fill="#FFFFFF" opacity="1.000000" stroke="none" 
	d="
M785.299316,439.039673 
	C785.101624,438.811523 785.238586,438.531616 785.649048,438.156128 
	C785.746826,438.330688 785.650635,438.639832 785.299316,439.039673 
z"/>
<path fill="#FFFFFF" opacity="1.000000" stroke="none" 
	d="
M783.314697,442.025269 
	C783.110962,441.794800 783.243652,441.518951 783.651184,441.152100 
	C783.751404,441.327362 783.659790,441.633636 783.314697,442.025269 
z"/>
<path fill="#36D5A8" opacity="1.000000" stroke="none" 
	d="
M133.288727,397.616974 
	C120.864075,371.742218 111.218727,345.209381 104.476112,317.742950 
	C99.927788,299.215118 96.805061,280.336853 93.068077,261.610687 
	C92.331924,257.921814 94.061371,256.773834 97.552742,257.271851 
	C120.581581,260.556610 143.799652,262.858093 166.601074,267.301605 
	C191.552826,272.164185 215.855148,279.780548 239.432404,289.573303 
	C270.032379,302.283020 298.236115,318.921326 323.878632,339.885132 
	C348.524139,360.033844 369.962036,383.202057 386.516479,410.392761 
	C396.765015,427.225952 406.038727,444.762054 414.364441,462.628326 
	C424.406799,484.178467 431.805023,506.816681 436.138428,530.275818 
	C439.241119,547.072571 441.636658,563.999023 444.471802,580.846802 
	C445.158295,584.926331 443.686127,586.450195 439.700836,586.044128 
	C421.361053,584.175476 402.854553,583.301331 384.721588,580.222473 
	C365.941681,577.033752 347.266449,572.577759 329.006226,567.131226 
	C301.371063,558.888611 275.515137,546.393799 251.000046,531.106506 
	C229.705307,517.827332 210.263000,502.297607 192.871933,484.253143 
	C172.918564,463.550140 156.069260,440.525452 142.451080,415.174377 
	C139.386230,409.468994 136.428452,403.706146 133.288727,397.616974 
z"/>
<path fill="#36D5A8" opacity="1.000000" stroke="none" 
	d="
M683.807129,284.759399 
	C703.740723,278.843262 723.115051,272.271027 742.921326,267.487488 
	C758.040405,263.836029 773.691284,262.343872 789.135864,260.099792 
	C797.355530,258.905487 805.636780,258.129272 813.895569,257.211792 
	C819.550415,256.583588 818.234863,260.788300 817.789734,263.563293 
	C816.264587,273.072693 814.850342,282.644653 812.501831,291.968048 
	C807.396912,312.234161 802.518921,332.611786 796.123230,352.485260 
	C787.255127,380.041534 774.946228,406.181091 759.530518,430.762238 
	C743.817505,455.817474 725.387695,478.651337 703.484131,498.594849 
	C675.290649,524.265381 643.243286,544.040894 607.851135,557.767212 
	C586.880188,565.900391 565.104126,572.461426 543.173096,577.461487 
	C524.485352,581.722168 505.067291,582.812439 485.952881,585.145874 
	C481.015717,585.748535 475.999084,585.670288 471.030792,586.057068 
	C467.285614,586.348572 465.594238,584.643066 466.169678,581.081848 
	C468.764618,565.022522 470.829559,548.838562 474.340424,532.977295 
	C477.847626,517.132629 482.181793,501.395477 487.336548,486.007507 
	C496.712646,458.018005 509.862579,431.697876 526.475769,407.312775 
	C546.644043,377.709412 571.218384,352.169403 599.813843,330.477173 
	C623.660645,312.387207 649.739929,298.393311 677.302185,286.988831 
	C679.296448,286.163666 681.387634,285.572601 683.807129,284.759399 
z"/>
<path fill="#38D5A8" opacity="1.000000" stroke="none" 
	d="
M599.599365,304.650391 
	C584.444031,316.821045 568.892761,328.024231 554.856262,340.881134 
	C528.373901,365.138153 507.997986,394.331726 491.002045,425.803619 
	C477.405914,450.980011 466.615936,477.376831 459.419434,505.157501 
	C458.595917,508.336426 457.401825,511.419373 455.121826,515.030212 
	C453.775940,511.225250 452.341797,507.448669 451.107391,503.607880 
	C449.686981,499.188507 448.236572,494.760742 447.180939,490.247314 
	C446.129364,485.751221 445.008606,481.162781 444.853668,476.583221 
	C443.898315,448.350433 446.277100,420.373077 453.014648,392.915588 
	C455.970276,380.870605 460.158722,369.131622 463.660065,357.216278 
	C469.799286,336.323853 479.776794,317.181427 491.249634,298.895386 
	C499.175201,286.263153 507.917542,274.030792 517.346252,262.477692 
	C536.880493,238.542084 559.663574,217.906769 584.581116,199.654129 
	C609.816711,181.168503 636.416870,164.936844 664.707642,151.532135 
	C669.626892,149.201263 670.180969,149.515259 671.122009,154.799011 
	C674.557739,174.088089 678.690735,193.286423 681.212280,212.694199 
	C683.199402,227.989136 683.289551,243.538208 683.937134,258.986359 
	C683.994568,260.356079 682.244385,262.481110 680.822388,263.123688 
	C671.151306,267.493835 661.029114,270.958832 651.646851,275.854889 
	C634.179810,284.969940 617.117920,294.861267 599.599365,304.650391 
z"/>
<path fill="#38D5A8" opacity="1.000000" stroke="none" 
	d="
M259.207642,157.707214 
	C294.725647,176.531189 328.021332,197.865692 357.707489,224.696060 
	C387.118988,251.278168 411.431213,281.722748 430.100647,316.660095 
	C434.002960,323.962738 437.269684,331.602325 440.999268,339.000916 
	C443.743713,344.445343 443.542023,349.867432 441.698700,355.469116 
	C436.141693,372.356720 431.197418,389.385284 428.908752,407.101562 
	C427.810394,415.603668 426.145599,424.032562 424.469513,434.103943 
	C421.954773,429.423218 420.167572,426.037415 418.327393,422.680634 
	C399.947906,389.153717 377.078369,359.101746 348.684326,333.413940 
	C327.501465,314.250000 304.274567,297.877533 278.717682,285.112061 
	C263.895752,277.708588 248.519073,271.403015 233.301880,264.811523 
	C228.990463,262.943970 226.536530,261.089569 226.675171,255.466934 
	C227.324905,229.115158 230.645340,203.095825 235.152451,177.189987 
	C236.317841,170.491470 237.729660,163.831512 239.210663,157.194534 
	C239.739929,154.822662 240.808060,152.571045 241.915527,149.464127 
	C247.935104,152.311554 253.416550,154.904434 259.207642,157.707214 
z"/>
<path fill="#38D5A8" opacity="1.000000" stroke="none" 
	d="
M470.071747,294.012512 
	C465.416931,302.455780 460.912384,310.564148 455.934509,319.524475 
	C454.252563,316.956085 452.629181,314.967529 451.528473,312.722717 
	C435.056702,279.130005 412.904053,249.660370 386.550385,223.267593 
	C383.536926,220.249680 382.951202,217.724060 384.691376,213.685944 
	C394.898407,190.000198 406.958130,167.291306 421.241913,145.866959 
	C430.994202,131.239395 441.848083,117.345230 452.261475,103.161369 
	C453.112091,102.002769 454.364227,101.138947 455.969574,99.631126 
	C460.017792,104.713203 463.902161,109.390854 467.572571,114.230736 
	C487.089386,139.965866 504.361847,167.109543 518.475464,196.194901 
	C521.733521,202.909149 524.660645,209.795959 527.407166,216.735123 
	C527.883301,217.938080 527.142029,220.178894 526.201294,221.302704 
	C513.191833,236.844147 499.711456,252.004776 487.080444,267.844025 
	C480.698364,275.847107 475.794312,285.028778 470.071747,294.012512 
z"/>
<path fill="#F9FAF6" opacity="1.000000" stroke="none" 
	d="
M705.002441,244.998657 
	C705.291992,245.378220 705.650208,245.727905 705.836853,246.152954 
	C705.933411,246.372864 705.725586,246.726425 705.442383,247.907288 
	C705.191589,246.595566 705.095764,246.094513 704.997559,245.298874 
	C704.995117,245.004272 705.000000,245.000000 705.002441,244.998657 
z"/>
</svg>